<svg width="64" height="64" viewBox="0 0 64 64" xmlns="http://www.w3.org/2000/svg">
  <defs>
    <linearGradient id="grad1" x1="0%" y1="0%" x2="100%" y2="100%">
      <stop offset="0%" style="stop-color:#4A90E2;stop-opacity:1" />
      <stop offset="100%" style="stop-color:#357ABD;stop-opacity:1" />
    </linearGradient>
  </defs>
  <rect width="64" height="64" rx="12" fill="url(#grad1)"/>
  <!-- Cloche de méditation -->
  <path d="M32 10 L32 14 M20 32 Q20 24 28 24 L36 24 Q44 24 44 32 L44 40 Q44 44 40 44 L24 44 Q20 44 20 40 Z" stroke="white" stroke-width="2" fill="none"/>
  <circle cx="32" cy="48" r="3" fill="white"/>
  <!-- Ondes de son -->
  <path d="M12 30 Q16 28 16 32 Q16 36 12 34" stroke="white" stroke-width="1.5" fill="none" opacity="0.7"/>
  <path d="M52 30 Q48 28 48 32 Q48 36 52 34" stroke="white" stroke-width="1.5" fill="none" opacity="0.7"/>
</svg>
